<mxfile host="Electron" agent="Mozilla/5.0 (Windows NT 10.0; Win64; x64) AppleWebKit/537.36 (KHTML, like Gecko) draw.io/26.0.7 Chrome/128.0.6613.186 Electron/32.2.5 Safari/537.36" version="26.0.7">
  <diagram id="fRFQDGyQalKSs4sy6emg" name="ページ1">
    <mxGraphModel dx="1114" dy="709" grid="1" gridSize="10" guides="1" tooltips="1" connect="1" arrows="1" fold="1" page="1" pageScale="1" pageWidth="600" pageHeight="450" background="#ffffff" math="1" shadow="0">
      <root>
        <mxCell id="0" />
        <mxCell id="1" parent="0" />
        <mxCell id="mFV1h_befVvdT-_sQ7fI-1" value="" style="endArrow=classic;html=1;rounded=0;" edge="1" parent="1">
          <mxGeometry width="50" height="50" relative="1" as="geometry">
            <mxPoint x="80" y="400" as="sourcePoint" />
            <mxPoint x="80" y="80" as="targetPoint" />
          </mxGeometry>
        </mxCell>
        <mxCell id="mFV1h_befVvdT-_sQ7fI-2" value="" style="endArrow=classic;html=1;rounded=0;" edge="1" parent="1">
          <mxGeometry width="50" height="50" relative="1" as="geometry">
            <mxPoint x="40" y="360" as="sourcePoint" />
            <mxPoint x="520" y="360" as="targetPoint" />
          </mxGeometry>
        </mxCell>
        <mxCell id="mFV1h_befVvdT-_sQ7fI-3" value="" style="endArrow=classic;html=1;rounded=0;" edge="1" parent="1">
          <mxGeometry width="50" height="50" relative="1" as="geometry">
            <mxPoint x="80" y="360" as="sourcePoint" />
            <mxPoint x="320" y="200" as="targetPoint" />
          </mxGeometry>
        </mxCell>
        <mxCell id="mFV1h_befVvdT-_sQ7fI-4" value="" style="endArrow=classic;html=1;rounded=0;strokeColor=#FF0000;strokeWidth=2;" edge="1" parent="1">
          <mxGeometry width="50" height="50" relative="1" as="geometry">
            <mxPoint x="320" y="200" as="sourcePoint" />
            <mxPoint x="440" y="120" as="targetPoint" />
          </mxGeometry>
        </mxCell>
        <mxCell id="mFV1h_befVvdT-_sQ7fI-5" value="" style="endArrow=classic;html=1;rounded=0;strokeColor=#0000FF;strokeWidth=2;" edge="1" parent="1">
          <mxGeometry width="50" height="50" relative="1" as="geometry">
            <mxPoint x="320" y="200" as="sourcePoint" />
            <mxPoint x="460" y="200" as="targetPoint" />
          </mxGeometry>
        </mxCell>
        <mxCell id="mFV1h_befVvdT-_sQ7fI-7" value="" style="endArrow=classic;html=1;rounded=0;strokeColor=#FF0000;strokeWidth=2;" edge="1" parent="1">
          <mxGeometry width="50" height="50" relative="1" as="geometry">
            <mxPoint x="320" y="200" as="sourcePoint" />
            <mxPoint x="240" y="80" as="targetPoint" />
          </mxGeometry>
        </mxCell>
        <mxCell id="mFV1h_befVvdT-_sQ7fI-8" value="`x`" style="text;html=1;align=center;verticalAlign=middle;whiteSpace=wrap;rounded=0;fontSize=24;" vertex="1" parent="1">
          <mxGeometry x="510" y="341" width="60" height="30" as="geometry" />
        </mxCell>
        <mxCell id="mFV1h_befVvdT-_sQ7fI-9" value="`y`" style="text;html=1;align=center;verticalAlign=middle;whiteSpace=wrap;rounded=0;fontSize=24;" vertex="1" parent="1">
          <mxGeometry x="50" y="40" width="60" height="30" as="geometry" />
        </mxCell>
        <mxCell id="mFV1h_befVvdT-_sQ7fI-10" value="`O`" style="text;html=1;align=center;verticalAlign=middle;whiteSpace=wrap;rounded=0;fontSize=24;" vertex="1" parent="1">
          <mxGeometry x="30" y="360" width="60" height="30" as="geometry" />
        </mxCell>
        <mxCell id="mFV1h_befVvdT-_sQ7fI-11" value="" style="endArrow=none;html=1;rounded=1;jumpStyle=arc;curved=0;" edge="1" parent="1">
          <mxGeometry width="50" height="50" relative="1" as="geometry">
            <mxPoint x="140" y="360" as="sourcePoint" />
            <mxPoint x="126" y="329" as="targetPoint" />
            <Array as="points">
              <mxPoint x="139" y="342" />
            </Array>
          </mxGeometry>
        </mxCell>
        <mxCell id="mFV1h_befVvdT-_sQ7fI-14" value="" style="endArrow=none;html=1;rounded=1;jumpStyle=arc;curved=0;" edge="1" parent="1">
          <mxGeometry width="50" height="50" relative="1" as="geometry">
            <mxPoint x="363" y="200" as="sourcePoint" />
            <mxPoint x="356" y="176" as="targetPoint" />
            <Array as="points">
              <mxPoint x="363" y="186" />
            </Array>
          </mxGeometry>
        </mxCell>
        <mxCell id="mFV1h_befVvdT-_sQ7fI-15" value="`\theta`" style="text;html=1;align=center;verticalAlign=middle;whiteSpace=wrap;rounded=0;fontSize=24;" vertex="1" parent="1">
          <mxGeometry x="126" y="326" width="60" height="30" as="geometry" />
        </mxCell>
        <mxCell id="mFV1h_befVvdT-_sQ7fI-16" value="`\theta`" style="text;html=1;align=center;verticalAlign=middle;whiteSpace=wrap;rounded=0;fontSize=24;" vertex="1" parent="1">
          <mxGeometry x="349" y="169" width="60" height="30" as="geometry" />
        </mxCell>
        <mxCell id="mFV1h_befVvdT-_sQ7fI-17" value="`dx`" style="text;html=1;align=center;verticalAlign=middle;whiteSpace=wrap;rounded=0;fontSize=24;" vertex="1" parent="1">
          <mxGeometry x="459" y="182" width="60" height="30" as="geometry" />
        </mxCell>
        <mxCell id="mFV1h_befVvdT-_sQ7fI-19" value="" style="endArrow=classic;html=1;rounded=0;strokeColor=#0000FF;strokeWidth=2;" edge="1" parent="1">
          <mxGeometry width="50" height="50" relative="1" as="geometry">
            <mxPoint x="320" y="200" as="sourcePoint" />
            <mxPoint x="320" y="60" as="targetPoint" />
          </mxGeometry>
        </mxCell>
        <mxCell id="mFV1h_befVvdT-_sQ7fI-18" value="`dy`" style="text;html=1;align=center;verticalAlign=middle;whiteSpace=wrap;rounded=0;fontSize=24;" vertex="1" parent="1">
          <mxGeometry x="289" y="20" width="60" height="30" as="geometry" />
        </mxCell>
        <mxCell id="mFV1h_befVvdT-_sQ7fI-20" value="`dr`" style="text;html=1;align=center;verticalAlign=middle;whiteSpace=wrap;rounded=0;fontSize=24;" vertex="1" parent="1">
          <mxGeometry x="432" y="93" width="60" height="30" as="geometry" />
        </mxCell>
        <mxCell id="mFV1h_befVvdT-_sQ7fI-21" value="`rd\theta`" style="text;html=1;align=center;verticalAlign=middle;whiteSpace=wrap;rounded=0;fontSize=24;" vertex="1" parent="1">
          <mxGeometry x="199" y="38" width="60" height="30" as="geometry" />
        </mxCell>
      </root>
    </mxGraphModel>
  </diagram>
</mxfile>
